<svg xmlns="http://www.w3.org/2000/svg" xmlns:xlink="http://www.w3.org/1999/xlink" viewBox="0 0 33.56 19.58"><defs><style>.cls-1,.cls-7{fill:none;}.cls-2{clip-path:url(#clip-path);}.cls-3,.cls-8{fill:#307359;}.cls-4{fill:#bf0236;}.cls-5,.cls-9{fill:#e0852a;}.cls-12,.cls-13,.cls-15,.cls-16,.cls-5,.cls-6,.cls-8{fill-rule:evenodd;}.cls-14,.cls-6{fill:#c03f2a;}.cls-7{stroke:#292c2f;stroke-linecap:square;stroke-miterlimit:10;stroke-width:0;}.cls-10,.cls-15{fill:#cf3b1d;}.cls-11{fill:#ad3b2b;}.cls-12{fill:#fff;}.cls-13{fill:#ab3b2c;}.cls-16{fill:#fbfcfc;}</style><clipPath id="clip-path"><rect class="cls-1" width="33.56" height="19.58"/></clipPath></defs><g id="Слой_2" data-name="Слой 2"><g id="_4" data-name="4"><g class="cls-2"><rect class="cls-3" width="33.56" height="19.58"/><rect class="cls-4" x="3.52" width="5.29" height="19.58"/><polygon class="cls-5" points="3.52 5.47 3.52 5.32 3.75 4.94 3.69 4.86 3.83 4.66 3.79 4.58 3.69 4.73 3.66 4.66 3.96 4.13 4.02 4.2 3.96 4.28 4.06 4.43 4.29 4.05 4.06 3.69 3.96 3.82 4.02 3.9 3.96 3.97 3.66 3.44 3.69 3.37 3.79 3.52 3.83 3.44 3.69 3.24 3.75 3.16 3.52 2.78 3.52 2.63 3.83 3.16 3.79 3.24 3.92 3.44 3.83 3.6 3.92 3.75 4.06 3.52 4.36 4.05 4.06 4.58 3.92 4.35 3.83 4.5 3.92 4.66 3.79 4.86 3.83 4.94 3.52 5.47"/><polygon class="cls-5" points="3.52 3.6 3.58 3.75 3.58 3.97 3.72 3.97 3.79 4.05 3.72 4.13 3.58 4.13 3.58 4.35 3.52 4.5 3.52 3.6"/><polygon class="cls-5" points="3.52 9.06 3.52 8.91 3.75 8.54 3.69 8.46 3.83 8.23 3.79 8.15 3.69 8.3 3.66 8.23 3.96 7.72 4.02 7.8 3.96 7.87 4.06 8.02 4.29 7.64 4.06 7.29 3.96 7.42 4.02 7.5 3.96 7.57 3.66 7.04 3.69 6.96 3.79 7.11 3.83 7.04 3.69 6.81 3.75 6.73 3.52 6.38 3.52 6.23 3.83 6.73 3.79 6.81 3.92 7.04 3.83 7.19 3.92 7.34 4.06 7.11 4.36 7.64 4.06 8.15 3.92 7.95 3.83 8.1 3.92 8.23 3.79 8.46 3.83 8.54 3.52 9.06"/><polygon class="cls-5" points="3.52 7.19 3.58 7.34 3.58 7.57 3.72 7.57 3.79 7.64 3.72 7.72 3.58 7.72 3.58 7.95 3.52 8.1 3.52 7.19"/><polygon class="cls-5" points="3.52 12.66 3.52 12.51 3.75 12.13 3.69 12.05 3.83 11.82 3.79 11.75 3.69 11.9 3.66 11.82 3.96 11.31 4.02 11.37 3.96 11.45 4.06 11.6 4.29 11.24 4.06 10.86 3.96 11.01 4.02 11.09 3.96 11.16 3.66 10.63 3.69 10.56 3.79 10.71 3.83 10.63 3.69 10.41 3.75 10.33 3.52 9.95 3.52 9.8 3.83 10.33 3.79 10.41 3.92 10.63 3.83 10.78 3.92 10.93 4.06 10.71 4.36 11.24 4.06 11.75 3.92 11.52 3.83 11.67 3.92 11.82 3.79 12.05 3.83 12.13 3.52 12.66"/><polygon class="cls-5" points="3.52 10.78 3.58 10.93 3.58 11.16 3.72 11.16 3.79 11.24 3.72 11.31 3.58 11.31 3.58 11.52 3.52 11.67 3.52 10.78"/><polygon class="cls-5" points="3.52 16.02 3.52 15.87 3.75 15.5 3.69 15.42 3.83 15.19 3.79 15.11 3.69 15.27 3.66 15.19 3.96 14.66 4.02 14.74 3.96 14.81 4.06 14.96 4.29 14.59 4.06 14.23 3.96 14.38 4.02 14.45 3.96 14.53 3.66 14 3.69 13.92 3.79 14.08 3.83 14 3.69 13.77 3.75 13.7 3.52 13.32 3.52 13.17 3.83 13.7 3.79 13.77 3.92 14 3.83 14.15 3.92 14.3 4.06 14.08 4.36 14.6 4.06 15.11 3.92 14.89 3.83 15.04 3.92 15.19 3.79 15.42 3.83 15.5 3.52 16.02"/><polygon class="cls-5" points="3.52 14.15 3.58 14.3 3.58 14.53 3.72 14.53 3.79 14.59 3.72 14.66 3.58 14.66 3.58 14.89 3.52 15.04 3.52 14.15"/><polygon class="cls-5" points="8.81 5.47 8.81 5.32 8.58 4.94 8.64 4.86 8.51 4.66 8.55 4.58 8.64 4.73 8.68 4.66 8.38 4.13 8.32 4.2 8.38 4.28 8.28 4.43 8.07 4.05 8.28 3.69 8.38 3.82 8.32 3.9 8.38 3.97 8.68 3.44 8.64 3.37 8.55 3.52 8.51 3.44 8.64 3.24 8.58 3.16 8.81 2.78 8.81 2.63 8.51 3.16 8.55 3.24 8.41 3.44 8.51 3.6 8.41 3.75 8.28 3.52 7.98 4.05 8.28 4.58 8.41 4.35 8.51 4.5 8.41 4.66 8.55 4.86 8.51 4.94 8.81 5.47"/><polygon class="cls-5" points="8.81 3.6 8.77 3.75 8.77 3.97 8.64 3.97 8.55 4.05 8.64 4.13 8.77 4.13 8.77 4.35 8.81 4.5 8.81 3.6"/><polygon class="cls-5" points="8.81 9.06 8.81 8.91 8.58 8.54 8.64 8.46 8.51 8.23 8.55 8.15 8.64 8.3 8.68 8.23 8.38 7.72 8.32 7.8 8.38 7.87 8.28 8.02 8.07 7.64 8.28 7.29 8.38 7.42 8.32 7.5 8.38 7.57 8.68 7.04 8.64 6.96 8.55 7.11 8.51 7.04 8.64 6.81 8.58 6.73 8.81 6.38 8.81 6.23 8.51 6.73 8.55 6.81 8.41 7.04 8.51 7.19 8.41 7.34 8.28 7.11 7.98 7.64 8.28 8.15 8.41 7.95 8.51 8.1 8.41 8.23 8.55 8.46 8.51 8.54 8.81 9.06"/><polygon class="cls-5" points="8.81 7.19 8.77 7.34 8.77 7.57 8.64 7.57 8.55 7.64 8.64 7.72 8.77 7.72 8.77 7.95 8.81 8.1 8.81 7.19"/><polygon class="cls-5" points="8.81 12.66 8.81 12.51 8.58 12.13 8.64 12.05 8.51 11.82 8.55 11.75 8.64 11.9 8.68 11.82 8.38 11.31 8.32 11.37 8.38 11.45 8.28 11.6 8.07 11.24 8.28 10.86 8.38 11.01 8.32 11.09 8.38 11.16 8.68 10.63 8.64 10.56 8.55 10.71 8.51 10.63 8.64 10.41 8.58 10.33 8.81 9.95 8.81 9.8 8.51 10.33 8.55 10.41 8.41 10.63 8.51 10.78 8.41 10.93 8.28 10.71 7.98 11.24 8.28 11.75 8.41 11.52 8.51 11.67 8.41 11.82 8.55 12.05 8.51 12.13 8.81 12.66"/><polygon class="cls-5" points="8.81 10.78 8.77 10.93 8.77 11.16 8.64 11.16 8.55 11.24 8.64 11.31 8.77 11.31 8.77 11.52 8.81 11.67 8.81 10.78"/><polygon class="cls-5" points="8.81 16.02 8.81 15.87 8.58 15.5 8.64 15.42 8.51 15.19 8.55 15.11 8.64 15.27 8.68 15.19 8.38 14.66 8.32 14.74 8.38 14.81 8.28 14.96 8.07 14.59 8.28 14.23 8.38 14.38 8.32 14.45 8.38 14.53 8.68 14 8.64 13.92 8.55 14.08 8.51 14 8.64 13.77 8.58 13.7 8.81 13.32 8.81 13.17 8.51 13.7 8.55 13.77 8.41 14 8.51 14.15 8.41 14.3 8.28 14.08 7.98 14.6 8.28 15.11 8.41 14.89 8.51 15.04 8.41 15.19 8.55 15.42 8.51 15.5 8.81 16.02"/><polygon class="cls-5" points="8.81 14.15 8.77 14.3 8.77 14.53 8.64 14.53 8.55 14.59 8.64 14.66 8.77 14.66 8.77 14.89 8.81 15.04 8.81 14.15"/><polygon class="cls-5" points="3.52 1.44 3.52 1.29 3.75 0.91 3.69 0.84 3.83 0.6 3.79 0.53 3.69 0.68 3.66 0.6 3.96 0.08 4.02 0.15 3.96 0.23 4.06 0.38 4.29 0 4.36 0 4.06 0.53 3.92 0.3 3.83 0.46 3.92 0.6 3.79 0.84 3.83 0.91 3.52 1.44"/><polygon class="cls-5" points="3.52 0 3.79 0 3.72 0.08 3.58 0.08 3.58 0.3 3.52 0.46 3.52 0"/><polygon class="cls-5" points="8.81 1.44 8.81 1.29 8.58 0.91 8.64 0.84 8.51 0.6 8.55 0.53 8.64 0.68 8.68 0.6 8.38 0.08 8.32 0.15 8.38 0.23 8.28 0.38 8.07 0 7.98 0 8.28 0.53 8.41 0.3 8.51 0.46 8.41 0.6 8.55 0.84 8.51 0.91 8.81 1.44"/><polygon class="cls-5" points="8.81 0 8.55 0 8.64 0.08 8.77 0.08 8.77 0.3 8.81 0.46 8.81 0"/><g class="cls-2"><path class="cls-5" d="M5.72,19.41A1.05,1.05,0,0,1,6.41,19c.47-.07.54.21.83.21a2.24,2.24,0,0,0,.7-.21,1.46,1.46,0,0,1-.78.36c-.32,0-.44-.19-.77-.15a2.9,2.9,0,0,0-.67.17Z"/><path class="cls-5" d="M6.65,19.41A1,1,0,0,0,6,19c-.48-.07-.57.21-.84.21a2.06,2.06,0,0,1-.7-.21,1.37,1.37,0,0,0,.76.36c.34,0,.46-.19.8-.15a2.58,2.58,0,0,1,.64.17Z"/><path class="cls-5" d="M5.1,18.94C5,18.86,5,18.52,5,18.48s.31.32.29.63c-.15.05-.65,0-.65-.12s.32-.09.46,0Z"/><path class="cls-5" d="M4.8,18.65c0-.09-.08-.45,0-.47s.24.38.17.68c-.15,0-.63-.19-.59-.28s.32,0,.44.07Z"/><path class="cls-5" d="M4.55,18.31c0-.07,0-.43,0-.45s.21.42.09.68c-.15,0-.6-.26-.57-.34s.32,0,.44.11Z"/><path class="cls-5" d="M4.36,18c0-.09,0-.45.09-.45s.16.45,0,.7c-.15,0-.55-.36-.51-.43s.32.09.42.18Z"/><path class="cls-5" d="M4.23,17.61c0-.09.07-.43.15-.43a.77.77,0,0,1-.08.7c-.17-.06-.51-.47-.47-.53s.3.15.4.26Z"/><path class="cls-5" d="M4.26,17.2c0,.35-.09.35-.22.09C4,17.2,4,16.76,4,16.76s.24.29.24.44Z"/><path class="cls-5" d="M7.28,19c0-.08.13-.42.07-.46s-.3.32-.28.62c.15.06.64,0,.64-.11s-.32-.09-.43-.05Z"/><path class="cls-5" d="M7.56,18.69c0-.1.07-.45,0-.47s-.25.37-.17.68c.15,0,.62-.19.61-.28s-.33,0-.46.07Z"/><path class="cls-5" d="M7.8,18.35c0-.07,0-.44,0-.45s-.21.41-.1.68c.16,0,.61-.27.57-.34s-.32,0-.44.11Z"/><path class="cls-5" d="M8,18c0-.1,0-.46-.1-.46a.76.76,0,0,0,0,.71c.15,0,.55-.36.51-.44s-.3.09-.41.19Z"/><path class="cls-5" d="M8.13,17.65c0-.1-.08-.43-.15-.43s-.1.45.09.69c.16,0,.49-.46.46-.52s-.3.15-.4.26Z"/><path class="cls-5" d="M8.11,17.23c0,.36.08.36.21.1.07-.1.07-.53,0-.53s-.23.29-.23.43Z"/><polygon class="cls-6" points="8 13.47 7.73 13.47 7.73 13.7 7.49 13.7 7.49 13.92 6.46 13.92 6.29 14.15 6.39 14.27 6.8 14.27 6.9 14.15 6.46 14.15 6.56 14.04 7.14 14.04 6.9 14.38 6.29 14.38 6.12 14.27 5.95 14.38 5.37 14.38 5.12 14.04 5.71 14.04 5.78 14.15 5.37 14.15 5.46 14.27 5.87 14.27 5.95 14.15 5.78 13.92 4.85 13.92 4.85 13.7 4.6 13.7 4.6 13.47 4.36 13.47 4.36 12.43 4.6 12.43 4.6 12.2 4.85 12.2 4.85 11.98 5.78 11.98 5.95 11.75 5.87 11.63 5.46 11.63 5.37 11.75 5.78 11.75 5.71 11.86 5.12 11.86 5.37 11.52 5.95 11.52 6.12 11.63 6.29 11.52 6.9 11.52 7.14 11.86 6.56 11.86 6.46 11.75 6.9 11.75 6.8 11.63 6.39 11.63 6.29 11.75 6.46 11.98 7.49 11.98 7.49 12.2 7.73 12.2 7.73 12.43 8 12.43 8 13.47"/><polygon class="cls-7" points="8 13.47 7.73 13.47 7.73 13.7 7.49 13.7 7.49 13.92 6.46 13.92 6.29 14.15 6.39 14.27 6.8 14.27 6.9 14.15 6.46 14.15 6.56 14.04 7.14 14.04 6.9 14.38 6.29 14.38 6.12 14.27 5.95 14.38 5.37 14.38 5.12 14.04 5.71 14.04 5.78 14.15 5.37 14.15 5.46 14.27 5.87 14.27 5.95 14.15 5.78 13.92 4.85 13.92 4.85 13.7 4.6 13.7 4.6 13.47 4.36 13.47 4.36 12.43 4.6 12.43 4.6 12.2 4.85 12.2 4.85 11.98 5.78 11.98 5.95 11.75 5.87 11.63 5.46 11.63 5.37 11.75 5.78 11.75 5.71 11.86 5.12 11.86 5.37 11.52 5.95 11.52 6.12 11.63 6.29 11.52 6.9 11.52 7.14 11.86 6.56 11.86 6.46 11.75 6.9 11.75 6.8 11.63 6.39 11.63 6.29 11.75 6.46 11.98 7.49 11.98 7.49 12.2 7.73 12.2 7.73 12.43 8 12.43 8 13.47"/><polygon class="cls-8" points="4.43 12.56 4.43 13.36 4.68 13.36 4.68 13.59 4.95 13.59 4.95 13.81 5.78 13.81 6.12 14.15 6.46 13.81 7.39 13.81 7.39 13.59 7.66 13.59 7.66 13.36 7.9 13.36 7.9 12.54 7.66 12.54 7.66 12.32 7.39 12.34 7.39 12.09 6.46 12.09 6.12 11.75 5.78 12.09 4.95 12.09 4.95 12.34 4.68 12.34 4.68 12.56 4.43 12.56"/><path class="cls-9" d="M4.49,13.36H4.38v-.8h.11Zm-.06.05h0v-.05h0Zm0-.11h.25v.11H4.43Zm.25,0h.06v.06H4.68Zm.06.29H4.62v-.23h.12Zm-.06.05H4.62v-.05h.06Zm0-.11H5v.11H4.68Zm.27,0H5v.06H5Zm0,.28H4.89v-.22H5Zm0,.06H4.89v-.06H5Zm0-.12h.83v.12H5Zm.83,0h.06l-.06.06Zm.06,0,.32.34-.08.1-.34-.34Zm.32.44,0,0,0,0,0,0Zm-.08-.1.34-.34.08.1-.34.34Zm.34-.34h0v.06Zm0,0h.93v.12H6.46Zm1,.12H7.39v-.06h.06Zm-.12-.28h.12v.22H7.33Zm0-.06h.06v.06H7.33Zm.06,0h.27v.11H7.39Zm.32.11h0v-.05h0Zm-.11-.28h.11v.23H7.6Zm0-.06h.06v.06H7.6Zm.06,0H7.9v.11H7.66Zm.3.11H7.9v-.05H8Zm-.11-.87H8v.82H7.85Zm.05-.06H8v.06H7.9Zm0,.12H7.66v-.12H7.9Zm-.24,0H7.6v-.06h.06Zm-.06-.28h.11v.22H7.6Zm.06-.06h0v.06h0Zm0,.12H7.39v-.11l.27,0Zm-.27,0H7.33v-.05h.06Zm-.06-.3h.12v.25H7.33ZM7.39,12h.06v.06H7.39Zm0,.12H6.46V12h.93Zm-.93,0h0l0-.06Zm0,0-.34-.35.08-.09.34.34Zm-.34-.44,0,0,0,0,0,0Zm.08.09-.32.35-.1-.1.34-.34Zm-.32.35H5.78v-.06Zm-.06,0H5V12h.83ZM4.89,12H5v.06H4.89Zm.11.31H4.89v-.25H5Zm0,.05H5v-.05H5Zm0,0H4.68v-.11H5Zm-.33-.11h.06v.06H4.62Zm.12.28H4.62v-.22h.12Zm0,.06H4.68v-.06h.06Zm-.06,0H4.43v-.11h.25Zm-.3-.11h0v.05h0Z"/><polygon class="cls-6" points="5.63 12.2 5.12 12.77 5.12 12.2 5.63 12.2"/><polygon class="cls-6" points="6.63 12.2 7.14 12.77 7.14 12.2 6.63 12.2"/><polygon class="cls-6" points="5.63 13.7 5.12 13.13 5.12 13.7 5.63 13.7"/><polygon class="cls-6" points="6.63 13.7 7.14 13.13 7.14 13.7 6.63 13.7"/><polygon class="cls-6" points="6.8 12.54 6.63 12.77 6.97 12.77 6.8 12.54"/><polygon class="cls-6" points="5.46 12.54 5.29 12.77 5.63 12.77 5.46 12.54"/><polygon class="cls-6" points="5.46 13.36 5.29 13.13 5.63 13.13 5.46 13.36"/><polygon class="cls-6" points="6.8 13.36 6.63 13.13 6.97 13.13 6.8 13.36"/><polygon class="cls-5" points="6.12 13.92 5.95 13.7 6.29 13.7 6.12 13.92"/><polygon class="cls-5" points="6.12 12.77 5.95 12.54 6.29 12.54 6.12 12.77"/><polygon class="cls-5" points="6.12 11.98 5.95 12.2 6.29 12.2 6.12 11.98"/><polygon class="cls-5" points="6.12 13.13 5.95 13.36 6.29 13.36 6.12 13.13"/><rect class="cls-9" x="6.63" y="12.77" width="0.34" height="0.12"/><rect class="cls-7" x="6.63" y="12.77" width="0.34" height="0.12"/><rect class="cls-10" x="5.37" y="12.89" width="0.17" height="0.13"/><rect class="cls-7" x="5.37" y="12.89" width="0.17" height="0.13"/><rect class="cls-10" x="6.72" y="12.89" width="0.17" height="0.13"/><rect class="cls-7" x="6.72" y="12.89" width="0.17" height="0.13"/><rect class="cls-11" x="5.95" y="12.2" width="0.34" height="0.11"/><rect class="cls-7" x="5.95" y="12.2" width="0.34" height="0.11"/><rect class="cls-11" x="5.95" y="12.43" width="0.34" height="0.11"/><rect class="cls-7" x="5.95" y="12.43" width="0.34" height="0.11"/><rect class="cls-11" x="5.87" y="12.32" width="0.52" height="0.12"/><rect class="cls-7" x="5.87" y="12.32" width="0.52" height="0.12"/><rect class="cls-11" x="5.95" y="13.36" width="0.34" height="0.12"/><rect class="cls-7" x="5.95" y="13.36" width="0.34" height="0.12"/><rect class="cls-11" x="5.95" y="13.59" width="0.34" height="0.11"/><rect class="cls-7" x="5.95" y="13.59" width="0.34" height="0.11"/><rect class="cls-11" x="5.87" y="13.47" width="0.52" height="0.11"/><rect class="cls-7" x="5.87" y="13.47" width="0.52" height="0.11"/><rect class="cls-9" x="6.63" y="13.02" width="0.34" height="0.12"/><rect class="cls-7" x="6.63" y="13.02" width="0.34" height="0.12"/><rect class="cls-9" x="5.29" y="12.77" width="0.34" height="0.12"/><rect class="cls-7" x="5.29" y="12.77" width="0.34" height="0.12"/><rect class="cls-9" x="5.29" y="13.02" width="0.34" height="0.12"/><rect class="cls-7" x="5.29" y="13.02" width="0.34" height="0.12"/><rect class="cls-9" x="5.19" y="12.89" width="0.17" height="0.13"/><rect class="cls-7" x="5.19" y="12.89" width="0.17" height="0.13"/><rect class="cls-9" x="5.53" y="12.89" width="0.17" height="0.13"/><rect class="cls-7" x="5.53" y="12.89" width="0.17" height="0.13"/><rect class="cls-9" x="6.56" y="12.89" width="0.17" height="0.13"/><rect class="cls-7" x="6.56" y="12.89" width="0.17" height="0.13"/><rect class="cls-9" x="6.9" y="12.89" width="0.15" height="0.13"/><rect class="cls-7" x="6.9" y="12.89" width="0.15" height="0.13"/><path class="cls-12" d="M5.93,13.53h0a.07.07,0,0,1,0,0s0,0,0,0Z"/><path class="cls-12" d="M6.16,13.53H6.1a.07.07,0,0,1,0,0,0,0,0,0,1,0,0Z"/><path class="cls-12" d="M6.37,13.51a0,0,0,0,1,0,0s0,0,0,0l0,0Z"/><path class="cls-12" d="M6,13.41l0,0a0,0,0,0,1,0,0s0,0,0,0a0,0,0,0,1,0,0Z"/><path class="cls-12" d="M6.27,13.39s0,0,0,0,0,0,0,0h0Z"/><path class="cls-12" d="M6,13.62a.07.07,0,0,1,0,0s0,0,0,0a0,0,0,0,1,0,0Z"/><path class="cls-12" d="M6.27,13.64s0,0,0,0,0,0,0,0,0,0,0,0,0,0,0,0Z"/><path class="cls-12" d="M6.61,12.94a.1.1,0,0,1,0,0s0,0,0,0,0,0,0,0,0,0,0,0Z"/><path class="cls-12" d="M6.82,12.94s0,0,0,0,0,0,0,0,0,0,0,0,0,0,0,0Z"/><path class="cls-12" d="M7,12.94s0,0,0,0,0,0,0,0,0,0,0,0,0,0,0,0Z"/><path class="cls-12" d="M6.69,12.83s0,0,0,0l0,0a0,0,0,0,1,0,0s0,0,0,0Z"/><path class="cls-12" d="M7,12.83v0a0,0,0,0,1,0,0s0,0,0,0,0,0,0,0Z"/><path class="cls-12" d="M6.69,13.05s0,0,0,0a.07.07,0,0,1,0,0s0,0,0,0,0,0,0,0Z"/><path class="cls-12" d="M7,13.05a.1.1,0,0,1,0,0,0,0,0,0,1,0,0H7Z"/><path class="cls-12" d="M5.93,12.38s0,0,0,0l0,0,0,0a0,0,0,0,1,0,0Z"/><path class="cls-12" d="M6.14,12.38s0,0,0,0l0,0,0,0a0,0,0,0,1,0,0Z"/><path class="cls-12" d="M6.37,12.38a0,0,0,0,1,0,0l0,0a0,0,0,0,1,0,0s0,0,0,0Z"/><path class="cls-12" d="M6,12.26a.07.07,0,0,1,0,0s0,0,0,0a0,0,0,0,1,0,0Z"/><path class="cls-12" d="M6.27,12.26s0,0,0,0,0,0,0,0,0,0,0,0,0,0,0,0Z"/><path class="cls-12" d="M6,12.48a.08.08,0,0,1,0,0,0,0,0,0,1,0,0H6Z"/><path class="cls-12" d="M6.27,12.51a0,0,0,0,1,0,0s0,0,0,0,0,0,0,0,0,0,0,0Z"/><path class="cls-12" d="M5.27,13a0,0,0,0,1,0,0s0,0,0,0a0,0,0,0,1,0,0,.07.07,0,0,1,0,0Z"/><path class="cls-12" d="M5.48,13s0,0,0,0,0,0,0,0,0,0,0,0,0,0,0,0Z"/><path class="cls-12" d="M5.69,13l0,0s0,0,0,0,0,0,0,0a.07.07,0,0,1,0,0Z"/><path class="cls-12" d="M5.34,12.84s0,0,0,0,0,0,0,0,0,0,0,0,0,0,0,0Z"/><path class="cls-12" d="M5.59,12.84a0,0,0,0,1,0,0l0,0,0,0s0,0,0,0Z"/><path class="cls-12" d="M5.34,13.07s0,0,0,0a0,0,0,0,1,0,0s0,0,0,0,0,0,0,0Z"/><path class="cls-12" d="M5.59,13.07s0,0,0,0a0,0,0,0,1,0,0,0,0,0,0,1,0,0s0,0,0,0Z"/><polygon class="cls-12" points="6.46 10.46 6.61 10.39 6.74 10.46 6.46 10.46"/><polygon class="cls-12" points="6.03 10.46 6.18 10.39 6.31 10.46 6.03 10.46"/><polygon class="cls-12" points="5.59 10.46 5.74 10.39 5.87 10.46 5.59 10.46"/><polygon class="cls-12" points="6.46 8.48 6.61 8.55 6.74 8.48 6.46 8.48"/><polygon class="cls-12" points="6.03 8.48 6.18 8.55 6.31 8.48 6.03 8.48"/><polygon class="cls-12" points="5.59 8.48 5.74 8.55 5.87 8.48 5.59 8.48"/><polygon class="cls-8" points="6.35 10.42 6.18 10.57 6.01 10.42 5.84 10.57 5.67 10.42 5.67 10.5 5.78 10.57 5.72 10.63 5.72 10.71 5.78 10.71 5.84 10.63 5.89 10.71 5.95 10.71 5.95 10.63 5.89 10.57 6.01 10.5 6.12 10.57 6.06 10.63 6.06 10.71 6.12 10.71 6.18 10.63 6.24 10.71 6.29 10.71 6.29 10.63 6.24 10.57 6.35 10.5 6.46 10.57 6.41 10.63 6.41 10.71 6.46 10.71 6.5 10.63 6.56 10.71 6.61 10.71 6.61 10.63 6.56 10.57 6.67 10.5 6.67 10.42 6.5 10.57 6.35 10.42"/><polygon class="cls-8" points="6.35 8.46 6.18 8.32 6.01 8.46 5.84 8.32 5.67 8.46 5.67 8.4 5.78 8.32 5.72 8.27 5.72 8.2 5.78 8.2 5.84 8.27 5.89 8.2 5.95 8.2 5.95 8.27 5.89 8.32 6.01 8.4 6.12 8.32 6.06 8.27 6.06 8.2 6.12 8.2 6.18 8.27 6.24 8.2 6.29 8.2 6.29 8.27 6.24 8.32 6.35 8.4 6.46 8.32 6.41 8.27 6.41 8.2 6.46 8.2 6.5 8.27 6.56 8.2 6.61 8.2 6.61 8.27 6.56 8.32 6.67 8.4 6.67 8.46 6.5 8.32 6.35 8.46"/><polygon class="cls-8" points="7.62 9.59 7.8 9.44 7.62 9.31 7.8 9.16 7.62 9.01 7.71 9.01 7.8 9.1 7.9 9.06 8 9.06 8 9.1 7.9 9.16 8 9.2 8 9.25 7.9 9.25 7.8 9.2 7.71 9.31 7.8 9.4 7.9 9.35 8 9.35 8 9.4 7.9 9.44 8 9.5 8 9.55 7.9 9.55 7.8 9.5 7.71 9.59 7.8 9.69 7.9 9.65 8 9.65 8 9.69 7.9 9.75 8 9.8 8 9.84 7.9 9.84 7.8 9.8 7.71 9.89 7.62 9.89 7.8 9.75 7.62 9.59"/><polygon class="cls-8" points="4.72 9.59 4.53 9.44 4.72 9.31 4.53 9.16 4.72 9.01 4.62 9.01 4.53 9.1 4.43 9.06 4.36 9.06 4.36 9.1 4.43 9.16 4.36 9.2 4.36 9.25 4.43 9.25 4.53 9.2 4.62 9.31 4.53 9.4 4.43 9.35 4.36 9.35 4.36 9.4 4.43 9.44 4.36 9.5 4.36 9.55 4.43 9.55 4.53 9.5 4.62 9.59 4.53 9.69 4.43 9.65 4.36 9.65 4.36 9.69 4.43 9.75 4.36 9.8 4.36 9.84 4.43 9.84 4.53 9.8 4.62 9.89 4.72 9.89 4.53 9.75 4.72 9.59"/><rect class="cls-3" x="7.69" y="10.09" width="0.08" height="0.07"/><rect class="cls-7" x="7.69" y="10.09" width="0.08" height="0.07"/><rect class="cls-3" x="7.62" y="10.16" width="0.08" height="0.07"/><rect class="cls-7" x="7.62" y="10.16" width="0.08" height="0.07"/><rect class="cls-3" x="7.26" y="10.5" width="0.08" height="0.07"/><rect class="cls-7" x="7.26" y="10.5" width="0.08" height="0.07"/><rect class="cls-3" x="7.33" y="10.42" width="0.07" height="0.08"/><rect class="cls-7" x="7.33" y="10.42" width="0.07" height="0.08"/><rect class="cls-3" x="4.93" y="10.42" width="0.07" height="0.08"/><rect class="cls-7" x="4.93" y="10.42" width="0.07" height="0.08"/><rect class="cls-3" x="4.57" y="10.09" width="0.08" height="0.07"/><rect class="cls-7" x="4.57" y="10.09" width="0.08" height="0.07"/><rect class="cls-3" x="4.64" y="10.16" width="0.08" height="0.07"/><rect class="cls-7" x="4.64" y="10.16" width="0.08" height="0.07"/><rect class="cls-3" x="4.64" y="8.66" width="0.08" height="0.08"/><rect class="cls-7" x="4.64" y="8.66" width="0.08" height="0.08"/><rect class="cls-3" x="4.57" y="8.74" width="0.08" height="0.06"/><rect class="cls-7" x="4.57" y="8.74" width="0.08" height="0.06"/><rect class="cls-3" x="5" y="8.32" width="0.08" height="0.08"/><rect class="cls-7" x="5" y="8.32" width="0.08" height="0.08"/><rect class="cls-3" x="4.93" y="8.4" width="0.07" height="0.05"/><rect class="cls-7" x="4.93" y="8.4" width="0.07" height="0.05"/><rect class="cls-3" x="7.26" y="8.32" width="0.08" height="0.08"/><rect class="cls-7" x="7.26" y="8.32" width="0.08" height="0.08"/><rect class="cls-3" x="7.33" y="8.4" width="0.07" height="0.05"/><rect class="cls-7" x="7.33" y="8.4" width="0.07" height="0.05"/><rect class="cls-3" x="7.62" y="8.66" width="0.08" height="0.08"/><rect class="cls-7" x="7.62" y="8.66" width="0.08" height="0.08"/><rect class="cls-3" x="7.69" y="8.74" width="0.08" height="0.06"/><rect class="cls-7" x="7.69" y="8.74" width="0.08" height="0.06"/><rect class="cls-3" x="5" y="10.5" width="0.08" height="0.07"/><rect class="cls-7" x="5" y="10.5" width="0.08" height="0.07"/><path class="cls-12" d="M6,9.44H5.74V9.31h.13V9.2H6V9.08h.13v.13A.22.22,0,0,0,6,9.44Z"/><path class="cls-5" d="M6.37,9.44H6.6V9.31H6.44V9.2H6.31V9.08H6.16v.13a.22.22,0,0,1,.21.23Z"/><path class="cls-12" d="M6.37,9.44H6.6v.13H6.44v.14H6.31v.11H6.16V9.69a.24.24,0,0,0,.21-.25Z"/><path class="cls-5" d="M6,9.44H5.74v.13h.13v.14H6v.11h.13V9.69A.23.23,0,0,1,6,9.44Z"/><path class="cls-8" d="M6.37,9.44H6.16V9.21a.24.24,0,0,1,.21.23Z"/><path class="cls-6" d="M6.37,9.44H6.16v.25a.24.24,0,0,0,.21-.25Z"/><path class="cls-8" d="M6,9.44h.21v.25A.23.23,0,0,1,6,9.44Z"/><path class="cls-6" d="M6,9.44h.21V9.21A.23.23,0,0,0,6,9.44Z"/><polygon class="cls-8" points="6.39 10.29 6.18 10.16 5.95 10.29 5.74 10.16 5.51 10.29 5.51 10.23 5.67 10.16 5.59 10.09 5.59 10.03 5.67 10.03 5.74 10.09 5.8 10.03 5.87 10.03 5.87 10.09 5.8 10.16 5.95 10.23 6.1 10.16 6.03 10.09 6.03 10.03 6.1 10.03 6.18 10.09 6.24 10.03 6.31 10.03 6.31 10.09 6.24 10.16 6.39 10.23 6.54 10.16 6.46 10.09 6.46 10.03 6.54 10.03 6.61 10.09 6.67 10.03 6.74 10.03 6.74 10.09 6.67 10.16 6.82 10.23 6.82 10.29 6.61 10.16 6.39 10.29"/><polygon class="cls-8" points="6.39 8.61 6.18 8.74 5.95 8.61 5.74 8.74 5.51 8.61 5.51 8.66 5.67 8.74 5.59 8.8 5.59 8.87 5.67 8.87 5.74 8.8 5.8 8.87 5.87 8.87 5.87 8.8 5.8 8.74 5.95 8.66 6.1 8.74 6.03 8.8 6.03 8.87 6.1 8.87 6.18 8.8 6.24 8.87 6.31 8.87 6.31 8.8 6.24 8.74 6.39 8.66 6.54 8.74 6.46 8.8 6.46 8.87 6.54 8.87 6.61 8.8 6.67 8.87 6.74 8.87 6.74 8.8 6.67 8.74 6.82 8.66 6.82 8.61 6.61 8.74 6.39 8.61"/><polygon class="cls-8" points="7.18 9.61 7.09 9.44 7.18 9.27 7.09 9.1 7.18 8.95 7.13 8.95 7.09 9.06 7.03 9.01 6.97 9.01 6.97 9.06 7.03 9.1 6.97 9.16 6.97 9.21 7.03 9.21 7.09 9.16 7.13 9.27 7.09 9.38 7.03 9.33 6.97 9.33 6.97 9.38 7.03 9.44 6.97 9.5 6.97 9.55 7.03 9.55 7.09 9.5 7.13 9.61 7.09 9.72 7.03 9.67 6.97 9.67 6.97 9.72 7.03 9.78 6.97 9.84 6.97 9.89 7.03 9.89 7.09 9.84 7.13 9.95 7.18 9.95 7.09 9.78 7.18 9.61"/><path class="cls-8" d="M5.51,8.66,5.23,9v1l.28.28H6.82L7.11,10V9l-.29-.29Zm-.07-.2-.72.68v.62l.72.66H6.9l.72-.66V9.14L6.9,8.46Z"/><path class="cls-7" d="M5.51,8.66,5.23,9v1l.28.28H6.82L7.11,10V9l-.29-.29Zm-.07-.2-.72.68v.62l.72.66H6.9l.72-.66V9.14L6.9,8.46Z"/><polygon class="cls-5" points="5.82 10.29 5.93 10.42 6.04 10.29 5.82 10.29"/><polygon class="cls-7" points="5.82 10.29 5.93 10.42 6.04 10.29 5.82 10.29"/><polygon class="cls-5" points="5.82 8.61 5.93 8.46 6.04 8.61 5.82 8.61"/><polygon class="cls-7" points="5.82 8.61 5.93 8.46 6.04 8.61 5.82 8.61"/><polygon class="cls-5" points="6.29 8.61 6.41 8.46 6.52 8.61 6.29 8.61"/><polygon class="cls-7" points="6.29 8.61 6.41 8.46 6.52 8.61 6.29 8.61"/><polygon class="cls-5" points="6.29 10.29 6.41 10.42 6.52 10.29 6.29 10.29"/><polygon class="cls-7" points="6.29 10.29 6.41 10.42 6.52 10.29 6.29 10.29"/><polygon class="cls-6" points="5.59 8.61 5.71 8.46 5.82 8.61 5.59 8.61"/><polygon class="cls-7" points="5.59 8.61 5.71 8.46 5.82 8.61 5.59 8.61"/><polygon class="cls-6" points="6.04 8.61 6.18 8.46 6.29 8.61 6.04 8.61"/><polygon class="cls-7" points="6.04 8.61 6.18 8.46 6.29 8.61 6.04 8.61"/><polygon class="cls-6" points="6.52 8.61 6.63 8.46 6.74 8.61 6.52 8.61"/><polygon class="cls-7" points="6.52 8.61 6.63 8.46 6.74 8.61 6.52 8.61"/><polygon class="cls-6" points="5.31 10.09 5.51 10.29 5.31 10.29 5.31 10.09"/><polygon class="cls-7" points="5.31 10.09 5.51 10.29 5.31 10.29 5.31 10.09"/><polygon class="cls-8" points="5.15 9.61 5.27 9.44 5.15 9.27 5.27 9.1 5.15 8.95 5.21 8.95 5.27 9.06 5.31 9.01 5.37 9.01 5.37 9.06 5.31 9.1 5.37 9.16 5.37 9.21 5.31 9.21 5.27 9.16 5.21 9.27 5.27 9.38 5.31 9.33 5.37 9.33 5.37 9.38 5.31 9.44 5.37 9.5 5.37 9.55 5.31 9.55 5.27 9.5 5.21 9.61 5.27 9.72 5.31 9.67 5.37 9.67 5.37 9.72 5.31 9.78 5.37 9.84 5.37 9.89 5.31 9.89 5.27 9.84 5.21 9.95 5.15 9.95 5.27 9.78 5.15 9.61"/><polygon class="cls-6" points="7.26 9.27 7.56 9.27 7.62 9.33 7.56 9.38 7.26 9.38 7.26 9.27"/><polygon class="cls-7" points="7.26 9.27 7.56 9.27 7.62 9.33 7.56 9.38 7.26 9.38 7.26 9.27"/><polygon class="cls-6" points="5.31 8.8 5.15 8.95 5.15 9.95 5.31 10.09 5.08 10.09 5.08 8.8 5.31 8.8"/><polygon class="cls-7" points="5.31 8.8 5.15 8.95 5.15 9.95 5.31 10.09 5.08 10.09 5.08 8.8 5.31 8.8"/><polygon class="cls-6" points="5.59 10.29 5.71 10.42 5.82 10.29 5.59 10.29"/><polygon class="cls-7" points="5.59 10.29 5.71 10.42 5.82 10.29 5.59 10.29"/><polygon class="cls-6" points="6.04 10.29 6.18 10.42 6.29 10.29 6.04 10.29"/><polygon class="cls-7" points="6.04 10.29 6.18 10.42 6.29 10.29 6.04 10.29"/><polygon class="cls-6" points="6.52 10.29 6.63 10.42 6.74 10.29 6.52 10.29"/><polygon class="cls-7" points="6.52 10.29 6.63 10.42 6.74 10.29 6.52 10.29"/><polygon class="cls-6" points="7.05 8.8 7.18 8.95 7.18 9.95 7.05 10.09 7.26 10.09 7.26 8.8 7.05 8.8"/><polygon class="cls-7" points="7.05 8.8 7.18 8.95 7.18 9.95 7.05 10.09 7.26 10.09 7.26 8.8 7.05 8.8"/><polygon class="cls-6" points="7.05 10.09 6.82 10.29 7.05 10.29 7.05 10.09"/><polygon class="cls-7" points="7.05 10.09 6.82 10.29 7.05 10.29 7.05 10.09"/><polygon class="cls-6" points="7.05 8.8 6.82 8.61 7.05 8.61 7.05 8.8"/><polygon class="cls-7" points="7.05 8.8 6.82 8.61 7.05 8.61 7.05 8.8"/><polygon class="cls-6" points="5.31 8.8 5.51 8.61 5.31 8.61 5.31 8.8"/><polygon class="cls-7" points="5.31 8.8 5.51 8.61 5.31 8.61 5.31 8.8"/><path class="cls-8" d="M5.51,8.66,5.23,9v1l.28.28H6.82L7.11,10V9l-.29-.29Zm0-.05L5.15,9v1l.36.34H6.82L7.18,10V9l-.36-.34Z"/><path class="cls-7" d="M5.51,8.66,5.23,9v1l.28.28H6.82L7.11,10V9l-.29-.29Zm0-.05L5.15,9v1l.36.34H6.82L7.18,10V9l-.36-.34Z"/><polygon class="cls-5" points="7.26 9.38 7.56 9.38 7.62 9.44 7.56 9.52 7.26 9.52 7.26 9.38"/><polygon class="cls-7" points="7.26 9.38 7.56 9.38 7.62 9.44 7.56 9.52 7.26 9.52 7.26 9.38"/><polygon class="cls-6" points="7.26 9.52 7.56 9.52 7.62 9.57 7.56 9.63 7.26 9.63 7.26 9.52"/><polygon class="cls-7" points="7.26 9.52 7.56 9.52 7.62 9.57 7.56 9.63 7.26 9.63 7.26 9.52"/><polygon class="cls-5" points="7.26 9.63 7.56 9.63 7.62 9.69 7.56 9.76 7.26 9.76 7.26 9.63"/><polygon class="cls-7" points="7.26 9.63 7.56 9.63 7.62 9.69 7.56 9.76 7.26 9.76 7.26 9.63"/><polygon class="cls-5" points="7.26 9.14 7.56 9.14 7.62 9.21 7.56 9.27 7.26 9.27 7.26 9.14"/><polygon class="cls-7" points="7.26 9.14 7.56 9.14 7.62 9.21 7.56 9.27 7.26 9.27 7.26 9.14"/><polygon class="cls-6" points="5.08 9.27 4.8 9.27 4.72 9.33 4.8 9.38 5.08 9.38 5.08 9.27"/><polygon class="cls-7" points="5.08 9.27 4.8 9.27 4.72 9.33 4.8 9.38 5.08 9.38 5.08 9.27"/><polygon class="cls-5" points="5.08 9.38 4.8 9.38 4.72 9.44 4.8 9.52 5.08 9.52 5.08 9.38"/><polygon class="cls-7" points="5.08 9.38 4.8 9.38 4.72 9.44 4.8 9.52 5.08 9.52 5.08 9.38"/><polygon class="cls-6" points="5.08 9.52 4.8 9.52 4.72 9.57 4.8 9.63 5.08 9.63 5.08 9.52"/><polygon class="cls-7" points="5.08 9.52 4.8 9.52 4.72 9.57 4.8 9.63 5.08 9.63 5.08 9.52"/><polygon class="cls-5" points="5.08 9.63 4.8 9.63 4.72 9.69 4.8 9.76 5.08 9.76 5.08 9.63"/><polygon class="cls-7" points="5.08 9.63 4.8 9.63 4.72 9.69 4.8 9.76 5.08 9.76 5.08 9.63"/><polygon class="cls-5" points="5.08 9.14 4.8 9.14 4.72 9.21 4.8 9.27 5.08 9.27 5.08 9.14"/><polygon class="cls-7" points="5.08 9.14 4.8 9.14 4.72 9.21 4.8 9.27 5.08 9.27 5.08 9.14"/><path class="cls-13" d="M4.64,8.74v1.42H5v.34H7.33v-.34h.36V8.74H7.33V8.4H5v.34Zm.08.06v1.29h.36v.33H7.26v-.33h.36V8.8H7.26V8.46H5.08V8.8Z"/><path class="cls-7" d="M4.64,8.74v1.42H5v.34H7.33v-.34h.36V8.74H7.33V8.4H5v.34Zm.08.06v1.29h.36v.33H7.26v-.33h.36V8.8H7.26V8.46H5.08V8.8Z"/><polygon class="cls-6" points="8 1.78 7.77 1.44 7.77 1.2 7.56 0.93 7.11 0.93 6.74 0.68 5.59 0.68 5.23 0.93 4.8 0.93 4.57 1.2 4.57 1.44 4.36 1.78 4.36 2.44 4.57 2.78 4.57 3.03 4.8 3.27 5.23 3.27 5.59 3.52 6.74 3.52 7.11 3.27 7.56 3.27 7.77 3.03 7.77 2.78 8 2.44 8 1.78"/><polygon class="cls-7" points="8 1.78 7.77 1.44 7.77 1.2 7.56 0.93 7.11 0.93 6.74 0.68 5.59 0.68 5.23 0.93 4.8 0.93 4.57 1.2 4.57 1.44 4.36 1.78 4.36 2.44 4.57 2.78 4.57 3.03 4.8 3.27 5.23 3.27 5.59 3.52 6.74 3.52 7.11 3.27 7.56 3.27 7.77 3.03 7.77 2.78 8 2.44 8 1.78"/><polygon class="cls-5" points="4.42 2.1 4.42 2.35 4.64 2.69 4.64 2.93 4.85 3.2 5.31 3.2 5.67 3.44 6.18 3.44 6.18 2.1 4.42 2.1"/><polygon class="cls-6" points="5.55 2.69 5.29 2.9 5.14 2.9 5.19 2.97 5.08 3.12 5.14 3.2 5.29 3.12 5.34 3.2 5.37 3.01 5.67 2.78 5.55 2.69"/><polygon class="cls-6" points="5.27 2.52 5 2.75 4.83 2.75 4.89 2.81 4.8 2.95 4.83 3.03 5 2.95 5.06 3.03 5.08 2.84 5.37 2.61 5.27 2.52"/><polygon class="cls-6" points="5.12 2.19 4.85 2.41 4.7 2.41 4.76 2.48 4.64 2.61 4.7 2.69 4.85 2.61 4.91 2.69 4.93 2.5 5.23 2.27 5.12 2.19"/><polygon class="cls-5" points="7.92 2.1 7.92 1.85 7.69 1.52 7.69 1.27 7.49 1.02 7.05 1.02 6.67 0.76 6.18 0.76 6.18 2.1 7.92 2.1"/><polygon class="cls-6" points="6.18 3.44 6.03 3.44 5.87 3.27 5.63 3.27 5.5 3.2 5.57 3.1 5.71 3.2 5.84 3.2 5.97 2.93 6.18 3.03 6.18 3.2 5.97 3.2 6.18 3.44"/><polygon class="cls-12" points="4.42 2.1 4.42 1.85 4.64 1.52 4.64 1.27 4.85 1.02 5.31 1.02 5.67 0.76 6.18 0.76 6.18 2.1 4.42 2.1"/><polygon class="cls-6" points="6.18 0.76 6.03 0.76 5.87 0.93 5.63 0.93 5.5 1.02 5.57 1.1 5.71 1.02 5.84 1.02 5.97 1.27 6.18 1.2 6.18 1.02 5.97 1.02 6.18 0.76"/><polygon class="cls-6" points="6.18 0.76 6.31 0.76 6.46 0.93 6.71 0.93 6.84 1.02 6.78 1.1 6.63 1.02 6.5 1.02 6.37 1.27 6.18 1.2 6.18 1.02 6.37 1.02 6.18 0.76"/><polygon class="cls-12" points="7.92 2.1 7.92 2.35 7.69 2.69 7.69 2.93 7.49 3.2 7.05 3.2 6.67 3.44 6.18 3.44 6.18 2.1 7.92 2.1"/><polygon class="cls-6" points="6.18 3.44 6.31 3.44 6.46 3.27 6.71 3.27 6.84 3.2 6.78 3.1 6.63 3.2 6.5 3.2 6.37 2.93 6.18 3.03 6.18 3.2 6.37 3.2 6.18 3.44"/><polygon class="cls-6" points="5.27 1.68 5 1.48 4.83 1.48 4.89 1.4 4.8 1.25 4.83 1.2 5 1.25 5.06 1.2 5.08 1.38 5.37 1.61 5.27 1.68"/><polygon class="cls-6" points="6.78 1.52 7.05 1.3 7.2 1.3 7.16 1.23 7.26 1.1 7.2 1.02 7.05 1.1 6.99 1.02 6.97 1.21 6.67 1.44 6.78 1.52"/><polygon class="cls-6" points="5.55 1.52 5.29 1.3 5.14 1.3 5.19 1.23 5.08 1.1 5.14 1.02 5.29 1.1 5.34 1.02 5.37 1.21 5.67 1.44 5.55 1.52"/><polygon class="cls-6" points="5.12 2.02 4.85 1.8 4.7 1.8 4.76 1.74 4.64 1.59 4.7 1.52 4.85 1.59 4.91 1.52 4.93 1.7 5.23 1.93 5.12 2.02"/><polygon class="cls-12" points="4.55 2.1 4.62 2.1 4.68 2.19 4.76 2.1 6.18 2.1 6.18 3.27 6.1 3.27 6.18 3.35 6.18 3.44 5.97 3.2 5.97 3.1 6.03 3.1 6.03 3.2 6.1 3.2 6.1 3.1 5.55 2.75 5.1 2.75 5.1 2.39 4.89 2.19 4.76 2.19 4.68 2.27 4.76 2.35 4.68 2.35 4.55 2.1"/><polygon class="cls-5" points="4.55 2.1 4.62 2.1 4.68 2.02 4.76 2.1 6.18 2.1 6.18 0.93 6.1 0.93 6.18 0.85 6.18 0.76 5.97 1.02 5.97 1.1 6.03 1.1 6.03 1.02 6.1 1.02 6.1 1.1 5.55 1.48 5.1 1.48 5.1 1.84 4.89 2.02 4.76 2.02 4.68 1.93 4.76 1.85 4.68 1.85 4.55 2.1"/><polygon class="cls-8" points="4.85 2.1 6.18 2.1 6.18 3.1 5.59 2.69 5.15 2.69 5.15 2.35 4.85 2.1"/><polygon class="cls-6" points="7.07 1.68 7.33 1.48 7.5 1.48 7.45 1.4 7.56 1.25 7.5 1.2 7.33 1.25 7.29 1.2 7.26 1.38 6.97 1.61 7.07 1.68"/><polygon class="cls-6" points="7.22 2.02 7.49 1.8 7.63 1.8 7.6 1.74 7.69 1.59 7.63 1.52 7.49 1.59 7.43 1.52 7.41 1.7 7.11 1.93 7.22 2.02"/><polygon class="cls-12" points="7.79 2.1 7.71 2.1 7.66 2.02 7.58 2.1 6.18 2.1 6.18 0.93 6.24 0.93 6.18 0.85 6.18 0.76 6.37 1.02 6.37 1.1 6.31 1.1 6.31 1.02 6.24 1.02 6.24 1.1 6.78 1.48 7.24 1.48 7.24 1.84 7.45 2.02 7.58 2.02 7.66 1.93 7.58 1.85 7.66 1.85 7.79 2.1"/><polygon class="cls-8" points="7.49 2.1 6.18 2.1 6.18 1.1 6.74 1.52 7.18 1.52 7.18 1.85 7.49 2.1"/><polygon class="cls-6" points="6.78 2.69 7.05 2.9 7.2 2.9 7.16 2.97 7.26 3.12 7.2 3.2 7.05 3.12 6.99 3.2 6.97 3.01 6.67 2.78 6.78 2.69"/><polygon class="cls-6" points="7.07 2.52 7.33 2.75 7.5 2.75 7.45 2.81 7.56 2.95 7.5 3.03 7.33 2.95 7.29 3.03 7.26 2.84 6.97 2.61 7.07 2.52"/><polygon class="cls-6" points="7.22 2.19 7.49 2.41 7.63 2.41 7.6 2.48 7.69 2.61 7.63 2.69 7.49 2.61 7.43 2.69 7.41 2.5 7.11 2.27 7.22 2.19"/><polygon class="cls-5" points="7.79 2.1 7.71 2.1 7.66 2.19 7.58 2.1 6.18 2.1 6.18 3.27 6.24 3.27 6.18 3.35 6.18 3.44 6.37 3.2 6.37 3.1 6.31 3.1 6.31 3.2 6.24 3.2 6.24 3.1 6.78 2.75 7.24 2.75 7.24 2.39 7.45 2.19 7.58 2.19 7.66 2.27 7.58 2.35 7.66 2.35 7.79 2.1"/><polygon class="cls-6" points="7.49 2.1 6.18 2.1 6.18 3.1 6.74 2.69 7.18 2.69 7.18 2.35 7.49 2.1"/><polygon class="cls-6" points="4.85 2.1 6.18 2.1 6.18 1.1 5.59 1.52 5.15 1.52 5.15 1.85 4.85 2.1"/><polygon class="cls-6" points="6.31 2.1 6.67 1.85 6.9 1.85 6.82 1.78 6.97 1.61 6.9 1.52 6.67 1.61 6.61 1.52 6.58 1.74 6.18 2 6.31 2.1"/><polygon class="cls-6" points="6.03 2.1 5.67 2.35 5.44 2.35 5.51 2.44 5.37 2.61 5.44 2.69 5.67 2.61 5.74 2.69 5.76 2.46 6.18 2.19 6.03 2.1"/><polygon class="cls-8" points="6.03 2.1 5.67 1.85 5.44 1.85 5.51 1.78 5.37 1.61 5.44 1.52 5.67 1.61 5.74 1.52 5.76 1.74 6.18 2 6.03 2.1"/><polygon class="cls-8" points="6.31 2.1 6.67 2.35 6.9 2.35 6.82 2.44 6.97 2.61 6.9 2.69 6.67 2.61 6.61 2.69 6.58 2.46 6.18 2.19 6.31 2.1"/><polygon class="cls-12" points="5.74 2.1 6.18 1.68 6.61 2.1 6.18 2.52 5.74 2.1"/><polygon class="cls-6" points="4.76 2.27 4.81 2.35 4.76 2.44 4.68 2.44 4.49 2.1 4.55 2.1 4.68 2.35 4.76 2.35 4.68 2.27 4.76 2.19 4.89 2.19 4.89 2.27 4.76 2.27"/><polygon class="cls-6" points="4.76 1.93 4.81 1.85 4.76 1.78 4.68 1.78 4.49 2.1 4.55 2.1 4.68 1.85 4.76 1.85 4.68 1.93 4.76 2.02 4.89 2.02 4.89 1.93 4.76 1.93"/><polygon class="cls-6" points="7.58 2.27 7.52 2.35 7.58 2.44 7.66 2.44 7.85 2.1 7.79 2.1 7.66 2.35 7.58 2.35 7.66 2.27 7.58 2.19 7.45 2.19 7.45 2.27 7.58 2.27"/><polygon class="cls-6" points="7.58 1.93 7.52 1.85 7.58 1.78 7.66 1.78 7.85 2.1 7.79 2.1 7.66 1.85 7.58 1.85 7.66 1.93 7.58 2.02 7.45 2.02 7.45 1.93 7.58 1.93"/><rect class="cls-14" x="6.1" y="1.78" width="0.13" height="0.66"/><rect class="cls-14" x="5.89" y="1.93" width="0.55" height="0.34"/><polygon class="cls-8" points="5.57 15.19 4.36 15.89 4.36 17.09 5.57 17.79 6.78 17.79 8 17.09 8 15.89 6.78 15.19 5.57 15.19"/><polygon class="cls-7" points="5.57 15.19 4.36 15.89 4.36 17.09 5.57 17.79 6.78 17.79 8 17.09 8 15.89 6.78 15.19 5.57 15.19"/><polygon class="cls-15" points="4.8 16.21 4.87 16.21 4.87 16.04 5.02 16.04 5.02 16.21 5.1 16.21 5.1 15.82 5.02 15.82 5.02 15.98 4.87 15.98 4.87 15.82 4.8 15.82 4.8 16.21"/><polygon class="cls-15" points="6.65 17.55 6.72 17.55 6.72 17.39 6.88 17.39 6.88 17.55 6.95 17.55 6.95 17.16 6.88 17.16 6.88 17.33 6.72 17.33 6.72 17.16 6.65 17.16 6.65 17.55"/><polygon class="cls-15" points="7.24 16.21 7.32 16.21 7.32 16.04 7.46 16.04 7.46 16.21 7.54 16.21 7.54 15.82 7.46 15.82 7.46 15.98 7.32 15.98 7.32 15.82 7.24 15.82 7.24 16.21"/><polygon class="cls-15" points="7.24 16.89 7.32 16.89 7.32 16.72 7.46 16.72 7.46 16.89 7.54 16.89 7.54 16.48 7.46 16.48 7.46 16.67 7.32 16.67 7.32 16.48 7.24 16.48 7.24 16.89"/><polygon class="cls-5" points="6.18 17.73 6.18 16.48 7.92 16.48 7.92 17.05 6.77 17.73 6.18 17.73"/><polygon class="cls-5" points="6.18 15.25 6.18 16.48 4.42 16.48 4.42 15.93 5.59 15.25 6.18 15.25"/><polygon class="cls-12" points="6.18 15.25 6.18 16.48 7.92 16.48 7.92 15.93 6.77 15.25 6.18 15.25"/><polygon class="cls-12" points="6.18 17.73 6.18 16.48 4.42 16.48 4.42 17.05 5.59 17.73 6.18 17.73"/><path class="cls-5" d="M7.11,16H7.8l-.69-.34Zm.81-.05v.55H6.82V16H6.58l-.29-.17v-.39l.17-.18H6.24v.57H6.18v-.62h.59Z"/><path class="cls-7" d="M7.11,16H7.8l-.69-.34Zm.81-.05v.55H6.82V16H6.58l-.29-.17v-.39l.17-.18H6.24v.57H6.18v-.62h.59Z"/><polygon class="cls-6" points="5.59 16.1 5.59 16.88 5.76 16.88 6.18 17.1 6.58 16.88 6.77 16.88 6.77 16.1 6.58 16.1 6.18 15.87 5.76 16.1 5.59 16.1"/><path class="cls-5" d="M5.23,17h-.7l.7.34Zm-.81.06v-.57H5.53v.45h.23L6,17.1v.4l-.17.17H6.1V17.1h.08v.63H5.59Z"/><path class="cls-7" d="M5.23,17h-.7l.7.34Zm-.81.06v-.57H5.53v.45h.23L6,17.1v.4l-.17.17H6.1V17.1h.08v.63H5.59Z"/><path class="cls-12" d="M5.23,16h-.7l.7-.34Zm-.81-.05v.55H5.53V16h.23L6,15.87v-.39l-.17-.18H6.1v.57h.08v-.62H5.59Z"/><path class="cls-7" d="M5.23,16h-.7l.7-.34Zm-.81-.05v.55H5.53V16h.23L6,15.87v-.39l-.17-.18H6.1v.57h.08v-.62H5.59Z"/><path class="cls-12" d="M7.11,17H7.8l-.69.34Zm.81.06v-.57H6.82v.45H6.58l-.29.17v.4l.17.17H6.24V17.1H6.18v.63h.59Z"/><path class="cls-7" d="M7.11,17H7.8l-.69.34Zm.81.06v-.57H6.82v.45H6.58l-.29.17v.4l.17.17H6.24V17.1H6.18v.63h.59Z"/><polygon class="cls-6" points="4.76 16.93 4.83 16.93 4.83 16.76 4.98 16.76 4.98 16.93 5.06 16.93 5.06 16.54 4.98 16.54 4.98 16.7 4.83 16.7 4.83 16.54 4.76 16.54 4.76 16.93"/><polygon class="cls-6" points="5.46 17.5 5.53 17.5 5.53 17.33 5.68 17.33 5.68 17.5 5.76 17.5 5.76 17.1 5.68 17.1 5.68 17.27 5.53 17.27 5.53 17.1 5.46 17.1 5.46 17.5"/><polygon class="cls-6" points="4.76 16.04 4.83 16.04 4.83 16.21 4.98 16.21 4.98 16.04 5.06 16.04 5.06 16.44 4.98 16.44 4.98 16.27 4.83 16.27 4.83 16.44 4.76 16.44 4.76 16.04"/><polygon class="cls-6" points="5.46 15.48 5.53 15.48 5.53 15.64 5.68 15.64 5.68 15.48 5.76 15.48 5.76 15.87 5.68 15.87 5.68 15.7 5.53 15.7 5.53 15.87 5.46 15.87 5.46 15.48"/><polygon class="cls-6" points="7.28 16.44 7.35 16.44 7.35 16.27 7.5 16.27 7.5 16.44 7.58 16.44 7.58 16.04 7.5 16.04 7.5 16.21 7.35 16.21 7.35 16.04 7.28 16.04 7.28 16.44"/><polygon class="cls-6" points="6.58 17.5 6.65 17.5 6.65 17.33 6.8 17.33 6.8 17.5 6.88 17.5 6.88 17.1 6.8 17.1 6.8 17.27 6.65 17.27 6.65 17.1 6.58 17.1 6.58 17.5"/><polygon class="cls-6" points="7.28 16.93 7.35 16.93 7.35 16.76 7.5 16.76 7.5 16.93 7.58 16.93 7.58 16.54 7.5 16.54 7.5 16.7 7.35 16.7 7.35 16.54 7.28 16.54 7.28 16.93"/><polygon class="cls-6" points="6.58 15.87 6.65 15.87 6.65 15.7 6.8 15.7 6.8 15.87 6.88 15.87 6.88 15.48 6.8 15.48 6.8 15.64 6.65 15.64 6.65 15.48 6.58 15.48 6.58 15.87"/><polygon class="cls-8" points="6.24 16.48 6.46 16.29 6.58 16.29 6.58 16.38 6.46 16.38 6.46 16.44 6.63 16.44 6.63 16.23 6.46 16.23 6.46 16.08 6.24 16.08 6.24 16.23 6.29 16.23 6.29 16.12 6.41 16.12 6.41 16.23 6.18 16.44 5.93 16.23 5.93 16.12 6.04 16.12 6.04 16.23 6.1 16.23 6.1 16.08 5.87 16.08 5.87 16.23 5.71 16.23 5.71 16.44 5.87 16.44 5.87 16.38 5.76 16.38 5.76 16.29 5.87 16.29 6.1 16.48 5.87 16.69 5.76 16.69 5.76 16.59 5.87 16.59 5.87 16.54 5.71 16.54 5.71 16.74 5.87 16.74 5.87 16.89 6.1 16.89 6.1 16.74 6.04 16.74 6.04 16.86 5.93 16.86 5.93 16.74 6.18 16.54 6.41 16.74 6.41 16.86 6.29 16.86 6.29 16.74 6.24 16.74 6.24 16.89 6.46 16.89 6.46 16.74 6.63 16.74 6.63 16.54 6.46 16.54 6.46 16.59 6.58 16.59 6.58 16.69 6.46 16.69 6.24 16.48"/><polygon class="cls-6" points="4.53 6.02 4.64 5.87 5.33 5.87 5.84 5.22 6.52 5.22 7.03 5.87 7.69 5.87 7.8 6.02 7.69 6.17 7.03 6.17 6.52 6.83 5.84 6.83 5.33 6.17 4.64 6.17 4.53 6.02"/><polygon class="cls-6" points="4.59 5.85 4.64 5.79 5.34 5.79 5.87 5.17 6.46 5.17 6.99 5.79 7.69 5.79 7.75 5.85 7.69 5.9 6.99 5.9 6.52 6.45 5.82 6.45 5.34 5.9 4.64 5.9 4.59 5.85"/><polygon class="cls-7" points="4.59 5.85 4.64 5.79 5.34 5.79 5.87 5.17 6.46 5.17 6.99 5.79 7.69 5.79 7.75 5.85 7.69 5.9 6.99 5.9 6.52 6.45 5.82 6.45 5.34 5.9 4.64 5.9 4.59 5.85"/><path class="cls-5" d="M6.46,5.9l.23.25-.11.13-.06,0H6.46v0l.06.08h.11l.11-.13V6.09l-.22-.26.22-.27V5.45l-.11-.13H6.52l-.06.06v.07h.06l.06-.07.11.13-.23.26-.22-.26.22-.27V5.18h0l-.23.27L6,5.18H5.89v.06l.23.27-.23.26-.22-.26.11-.13.06.07h0V5.38l0-.06H5.72l-.11.13v.11l.23.27-.23.26v.14l.11.13h.12l0-.08v0h0l-.06,0-.11-.13.22-.25.23.25-.23.26v.08H6l.23-.26.23.26h0V6.41l-.22-.26Zm-.28-.34L6,5.83l.23.26.23-.26Z"/><path class="cls-7" d="M6.46,5.9l.23.25-.11.13-.06,0H6.46v0l.06.08h.11l.11-.13V6.09l-.22-.26.22-.27V5.45l-.11-.13H6.52l-.06.06v.07h.06l.06-.07.11.13-.23.26-.22-.26.22-.27V5.18h0l-.23.27L6,5.18H5.89v.06l.23.27-.23.26-.22-.26.11-.13.06.07h0V5.38l0-.06H5.72l-.11.13v.11l.23.27-.23.26v.14l.11.13h.12l0-.08v0h0l-.06,0-.11-.13.22-.25.23.25-.23.26v.08H6l.23-.26.23.26h0V6.41l-.22-.26Zm-.28-.34L6,5.83l.23.26.23-.26Z"/><polygon class="cls-5" points="5.84 6.55 5.84 7.05 5.89 7 5.95 7.05 6.01 7 6.06 7.05 6.12 7 6.18 7.05 6.24 7 6.29 7.05 6.35 7 6.41 7.05 6.46 7 6.52 7.05 6.52 6.55 5.84 6.55"/><polygon class="cls-5" points="6.52 5.11 6.52 4.6 6.46 4.66 6.41 4.6 6.35 4.66 6.29 4.6 6.24 4.66 6.18 4.6 6.12 4.66 6.06 4.6 6.01 4.66 5.95 4.6 5.89 4.66 5.84 4.6 5.84 5.11 6.52 5.11"/><polygon class="cls-5" points="7.46 5.7 7.46 5.18 7.41 5.24 7.35 5.18 7.29 5.24 7.24 5.18 7.2 5.24 7.14 5.18 7.09 5.24 7.03 5.18 7.03 5.7 7.46 5.7"/><polygon class="cls-5" points="5.33 5.7 5.33 5.18 5.27 5.24 5.21 5.18 5.15 5.24 5.1 5.18 5.04 5.24 4.98 5.18 4.93 5.24 4.87 5.18 4.87 5.7 5.33 5.7"/><polygon class="cls-5" points="7.46 5.96 7.46 6.49 7.41 6.41 7.35 6.49 7.29 6.41 7.24 6.49 7.2 6.41 7.14 6.49 7.09 6.41 7.03 6.49 7.03 5.96 7.46 5.96"/><polygon class="cls-5" points="5.33 5.96 5.33 6.49 5.27 6.41 5.21 6.49 5.15 6.41 5.1 6.49 5.04 6.41 4.98 6.49 4.93 6.41 4.87 6.49 4.87 5.96 5.33 5.96"/><polygon class="cls-8" points="6.52 6.55 6.52 6.87 6.58 6.81 6.63 6.87 6.69 6.81 6.74 6.87 6.8 6.81 6.86 6.87 6.92 6.81 6.97 6.87 7.03 6.81 7.03 5.96 6.52 6.55"/><polygon class="cls-8" points="5.84 6.55 5.84 6.87 5.78 6.81 5.72 6.87 5.67 6.81 5.61 6.87 5.55 6.81 5.5 6.87 5.44 6.81 5.38 6.87 5.33 6.81 5.33 5.96 5.84 6.55"/><polygon class="cls-8" points="5.84 5.11 5.84 4.79 5.78 4.86 5.72 4.79 5.67 4.86 5.61 4.79 5.55 4.86 5.5 4.79 5.44 4.86 5.38 4.79 5.33 4.86 5.33 5.7 5.84 5.11"/><polygon class="cls-8" points="6.52 5.11 6.52 4.79 6.58 4.86 6.63 4.79 6.69 4.86 6.74 4.79 6.8 4.86 6.86 4.79 6.92 4.86 6.97 4.79 7.03 4.86 7.03 5.7 6.52 5.11"/><polygon class="cls-8" points="4.87 6.36 4.81 6.28 4.76 6.36 4.7 6.28 4.64 6.36 4.59 6.28 4.53 6.36 4.47 6.28 4.42 6.36 4.42 5.32 4.47 5.38 4.53 5.32 4.59 5.38 4.64 5.32 4.7 5.38 4.76 5.32 4.81 5.38 4.87 5.32 4.87 5.7 4.64 5.7 4.53 5.83 4.64 5.96 4.87 5.96 4.87 6.36"/><polygon class="cls-8" points="7.46 6.36 7.52 6.28 7.58 6.36 7.63 6.28 7.69 6.36 7.75 6.28 7.8 6.36 7.86 6.28 7.92 6.36 7.92 5.32 7.86 5.38 7.8 5.32 7.75 5.38 7.69 5.32 7.63 5.38 7.58 5.32 7.52 5.38 7.46 5.32 7.46 5.7 7.69 5.7 7.8 5.83 7.69 5.96 7.46 5.96 7.46 6.36"/><path class="cls-12" d="M5.55,6.59s0,0,0,.07a.12.12,0,0,0,.07.07.07.07,0,0,0,.07-.07s0-.07,0-.07v-.1s.12.17.12.1-.12-.16-.12-.16h0s-.11.12-.11.16.11-.1.11-.1Z"/><path class="cls-6" d="M6.14,6.79s-.06.06-.06.1.06.11.1.11.07-.07.07-.11a.22.22,0,0,0,0-.1V6.64s.09.23.09.13a.54.54,0,0,0-.09-.2H6.14s-.11.16-.1.2.1-.13.1-.13Z"/><path class="cls-8" d="M5.67,5.83s-.06.07-.12.07-.11,0-.11-.07,0-.06.11-.06.12,0,.12.06Z"/><path class="cls-8" d="M6.29,5.83s0,.07-.11.07-.12,0-.12-.07,0-.06.12-.06.11,0,.11.06Z"/><path class="cls-8" d="M6.92,5.83s-.06.07-.12.07-.11,0-.11-.07,0-.06.11-.06.12,0,.12.06Z"/><path class="cls-12" d="M5.53,5.09A.3.3,0,0,1,5.5,5s0-.08,0-.08.08.06.08.08a.26.26,0,0,1,0,.09v.09s.1-.16.1-.09-.1.15-.1.15H5.53s-.09-.11-.09-.15.09.09.09.09Z"/><path class="cls-6" d="M6.12,4.88s-.06-.07-.06-.11a.24.24,0,0,1,.1-.1s.08.06.08.1-.06.11-.06.11V5s.11-.24.11-.13-.11.19-.11.19H6.12S6,4.94,6,4.9s.09.13.09.13Z"/><path class="cls-12" d="M6.77,6.59s-.06,0-.06.07.06.07.07.07.08,0,.08-.07-.06-.07-.06-.07v-.1s.12.17.12.1-.12-.16-.12-.16h0s-.12.12-.12.16.12-.1.12-.1Z"/><path class="cls-12" d="M6.74,5.09a.3.3,0,0,1,0-.09s0-.08.06-.08.07.06.07.08a.26.26,0,0,1,0,.09v.09s.1-.16.1-.09-.1.15-.1.15H6.74s-.09-.11-.09-.15.09.09.09.09Z"/><path class="cls-6" d="M5.06,6.23S5,6.28,5,6.3s.08.08.1.08a.12.12,0,0,0,.09-.08s0-.07,0-.07v-.1s.11.15.11.08-.11-.14-.11-.14H5.06s-.13.11-.11.14.11-.08.11-.08Z"/><path class="cls-6" d="M5,5.49S5,5.45,5,5.41s.06-.07.1-.07a.11.11,0,0,1,.09.07s-.07.08-.07.08v.09s.11-.15.11-.07-.11.13-.11.13H5s-.13-.11-.11-.13.11.07.11.07Z"/><path class="cls-6" d="M7.24,6.21s-.06,0-.06.07.06.08.1.08.09-.06.09-.08-.08-.07-.08-.07v-.1s.12.15.12.1-.12-.14-.12-.14h0s-.13.1-.11.14.11-.1.11-.1Z"/><path class="cls-6" d="M7.22,5.47s-.06,0-.06-.08a.12.12,0,0,1,.19,0s-.07.08-.07.08v.09s.11-.15.11-.07-.11.13-.11.13H7.22s-.13-.11-.11-.13.11.07.11.07Z"/><path class="cls-12" d="M4.59,6.23a.16.16,0,0,1,0-.1s0-.08.07-.08.06.06.06.08v.1l0-.08c0,.11,0,.11-.06,0Z"/><path class="cls-12" d="M4.59,5.47s0,.07,0,.09,0,.08.07.08.06-.06.06-.1V5.47l0,.07c0-.11,0-.11-.06,0Z"/><path class="cls-12" d="M7.66,6.21a.13.13,0,0,1,0-.1s.06-.06.08-.06a.09.09,0,0,1,.08.08.27.27,0,0,1,0,.1l0-.08c0,.09,0,.09-.06,0Z"/><path class="cls-12" d="M7.66,5.47a.11.11,0,0,0,0,.07s.06.08.08.08.08-.06.08-.08V5.45l0,.08c0-.12,0-.12-.06,0Z"/><path class="cls-6" d="M5.82,7.07V6.89H5.29V6.53H4.81V6.39H4.42V5.28h.39V5.17h.48V4.79h.53V4.62h.7v.17h.53v.38h.47v.11h.4V6.39h-.4v.14H7.05v.36H6.52v.18Zm-.06.06V7H5.23V6.59H4.76V6.45h-.4V5.22h.4V5.11h.47V4.73h.53V4.54h.82v.19h.53v.38h.47v.11H8V6.45H7.58v.14H7.11V7H6.58v.17Z"/><path class="cls-7" d="M5.82,7.07V6.89H5.29V6.53H4.81V6.39H4.42V5.28h.39V5.17h.48V4.79h.53V4.62h.7v.17h.53v.38h.47v.11h.4V6.39h-.4v.14H7.05v.36H6.52v.18Zm-.06.06V7H5.23V6.59H4.76V6.45h-.4V5.22h.4V5.11h.47V4.73h.53V4.54h.82v.19h.53v.38h.47v.11H8V6.45H7.58v.14H7.11V7H6.58v.17Z"/><path class="cls-12" d="M16.07,4.39a2.44,2.44,0,1,0-4.87,0,2.44,2.44,0,1,0,4.87,0Z"/><path class="cls-8" d="M15.4,4A2.41,2.41,0,1,0,13,6.43,2.41,2.41,0,0,0,15.4,4Z"/><polygon class="cls-16" points="13.95 3.03 13.6 3.03 13.51 3.37 13.4 3.03 13.05 3.03 13.32 2.82 13.21 2.5 13.49 2.69 13.78 2.5 13.68 2.82 13.95 3.03"/><polygon class="cls-16" points="12.71 2.41 12.37 2.43 12.28 2.75 12.17 2.43 11.83 2.41 12.09 2.19 11.97 1.88 12.26 2.06 12.53 1.88 12.45 2.19 12.71 2.41"/><polygon class="cls-16" points="12.71 3.65 12.37 3.65 12.28 3.97 12.17 3.65 11.83 3.65 12.09 3.44 11.97 3.1 12.26 3.31 12.53 3.1 12.45 3.44 12.71 3.65"/><polygon class="cls-16" points="12.71 4.9 12.37 4.9 12.28 5.22 12.17 4.9 11.83 4.9 12.09 4.69 11.97 4.35 12.26 4.56 12.53 4.35 12.45 4.69 12.71 4.9"/><polygon class="cls-16" points="11.48 4.26 11.14 4.26 11.05 4.6 10.93 4.26 10.59 4.26 10.86 4.05 10.75 3.73 11.03 3.92 11.31 3.73 11.22 4.05 11.48 4.26"/><polygon class="cls-6" points="6.58 17.5 6.65 17.5 6.65 17.33 6.8 17.33 6.8 17.5 6.88 17.5 6.88 17.1 6.8 17.1 6.8 17.27 6.65 17.27 6.65 17.1 6.58 17.1 6.58 17.5"/></g></g></g></g></svg>